<mxfile host="Electron" agent="Mozilla/5.0 (Windows NT 10.0; Win64; x64) AppleWebKit/537.36 (KHTML, like Gecko) draw.io/24.7.5 Chrome/126.0.6478.183 Electron/31.3.0 Safari/537.36" version="24.7.5">
  <diagram name="第 1 页" id="dQLx0q2Ztyzr-I0DLPRw">
    <mxGraphModel dx="1113" dy="790" grid="1" gridSize="10" guides="1" tooltips="1" connect="1" arrows="1" fold="1" page="1" pageScale="1" pageWidth="827" pageHeight="1169" math="0" shadow="0">
      <root>
        <mxCell id="0" />
        <mxCell id="1" parent="0" />
        <mxCell id="Qr4zRflr08_f6PJ-hQDn-60" value="" style="rounded=0;whiteSpace=wrap;html=1;" vertex="1" parent="1">
          <mxGeometry x="170" y="60" width="370" height="540" as="geometry" />
        </mxCell>
        <mxCell id="Qr4zRflr08_f6PJ-hQDn-2" value="用户" style="shape=umlActor;verticalLabelPosition=bottom;verticalAlign=top;html=1;outlineConnect=0;" vertex="1" parent="1">
          <mxGeometry x="50" y="320" width="30" height="60" as="geometry" />
        </mxCell>
        <mxCell id="Qr4zRflr08_f6PJ-hQDn-3" value="系统管理员" style="shape=umlActor;verticalLabelPosition=bottom;verticalAlign=top;html=1;outlineConnect=0;" vertex="1" parent="1">
          <mxGeometry x="620" y="320" width="30" height="60" as="geometry" />
        </mxCell>
        <mxCell id="Qr4zRflr08_f6PJ-hQDn-4" value="&lt;font style=&quot;font-size: 14px;&quot;&gt;宠物百科&lt;/font&gt;" style="text;strokeColor=none;fillColor=none;html=1;fontSize=24;fontStyle=1;verticalAlign=middle;align=center;" vertex="1" parent="1">
          <mxGeometry x="298.75" y="60" width="100" height="40" as="geometry" />
        </mxCell>
        <mxCell id="Qr4zRflr08_f6PJ-hQDn-5" value="浏览品种特性" style="ellipse;whiteSpace=wrap;html=1;" vertex="1" parent="1">
          <mxGeometry x="203.5" y="140" width="90" height="40" as="geometry" />
        </mxCell>
        <mxCell id="Qr4zRflr08_f6PJ-hQDn-6" value="浏览品种分类信息" style="ellipse;whiteSpace=wrap;html=1;" vertex="1" parent="1">
          <mxGeometry x="203.5" y="250" width="87.5" height="40" as="geometry" />
        </mxCell>
        <mxCell id="Qr4zRflr08_f6PJ-hQDn-7" value="获取品种百科" style="ellipse;whiteSpace=wrap;html=1;" vertex="1" parent="1">
          <mxGeometry x="208.75" y="350" width="90" height="40" as="geometry" />
        </mxCell>
        <mxCell id="Qr4zRflr08_f6PJ-hQDn-8" value="查看健康护理知识" style="ellipse;whiteSpace=wrap;html=1;" vertex="1" parent="1">
          <mxGeometry x="208.75" y="500" width="90" height="40" as="geometry" />
        </mxCell>
        <mxCell id="Qr4zRflr08_f6PJ-hQDn-18" value="" style="endArrow=none;html=1;rounded=0;exitX=1;exitY=0.3333333333333333;exitDx=0;exitDy=0;exitPerimeter=0;entryX=0;entryY=0.5;entryDx=0;entryDy=0;" edge="1" parent="1" source="Qr4zRflr08_f6PJ-hQDn-2" target="Qr4zRflr08_f6PJ-hQDn-5">
          <mxGeometry width="50" height="50" relative="1" as="geometry">
            <mxPoint x="230" y="420" as="sourcePoint" />
            <mxPoint x="280" y="370" as="targetPoint" />
          </mxGeometry>
        </mxCell>
        <mxCell id="Qr4zRflr08_f6PJ-hQDn-19" value="" style="endArrow=none;html=1;rounded=0;entryX=0;entryY=0.5;entryDx=0;entryDy=0;exitX=1;exitY=0.3333333333333333;exitDx=0;exitDy=0;exitPerimeter=0;" edge="1" parent="1" target="Qr4zRflr08_f6PJ-hQDn-6" source="Qr4zRflr08_f6PJ-hQDn-2">
          <mxGeometry width="50" height="50" relative="1" as="geometry">
            <mxPoint x="90" y="380" as="sourcePoint" />
            <mxPoint x="220" y="90" as="targetPoint" />
          </mxGeometry>
        </mxCell>
        <mxCell id="Qr4zRflr08_f6PJ-hQDn-20" value="" style="endArrow=none;html=1;rounded=0;entryX=0;entryY=0.5;entryDx=0;entryDy=0;exitX=1;exitY=0.3333333333333333;exitDx=0;exitDy=0;exitPerimeter=0;" edge="1" parent="1" target="Qr4zRflr08_f6PJ-hQDn-7" source="Qr4zRflr08_f6PJ-hQDn-2">
          <mxGeometry width="50" height="50" relative="1" as="geometry">
            <mxPoint x="90" y="380" as="sourcePoint" />
            <mxPoint x="221" y="150" as="targetPoint" />
          </mxGeometry>
        </mxCell>
        <mxCell id="Qr4zRflr08_f6PJ-hQDn-21" value="" style="endArrow=none;html=1;rounded=0;entryX=0;entryY=0.5;entryDx=0;entryDy=0;exitX=1;exitY=0.3333333333333333;exitDx=0;exitDy=0;exitPerimeter=0;" edge="1" parent="1" source="Qr4zRflr08_f6PJ-hQDn-2" target="Qr4zRflr08_f6PJ-hQDn-8">
          <mxGeometry width="50" height="50" relative="1" as="geometry">
            <mxPoint x="100" y="390" as="sourcePoint" />
            <mxPoint x="220" y="220" as="targetPoint" />
          </mxGeometry>
        </mxCell>
        <mxCell id="Qr4zRflr08_f6PJ-hQDn-23" value="查看品种详细信息" style="ellipse;whiteSpace=wrap;html=1;" vertex="1" parent="1">
          <mxGeometry x="406" y="110" width="90" height="40" as="geometry" />
        </mxCell>
        <mxCell id="Qr4zRflr08_f6PJ-hQDn-24" value="" style="endArrow=block;dashed=1;endFill=0;endSize=12;html=1;rounded=0;entryX=0;entryY=0.5;entryDx=0;entryDy=0;exitX=1;exitY=0.5;exitDx=0;exitDy=0;" edge="1" parent="1" source="Qr4zRflr08_f6PJ-hQDn-5" target="Qr4zRflr08_f6PJ-hQDn-23">
          <mxGeometry width="160" relative="1" as="geometry">
            <mxPoint x="286" y="170.00000000000023" as="sourcePoint" />
            <mxPoint x="454" y="173.95" as="targetPoint" />
          </mxGeometry>
        </mxCell>
        <mxCell id="Qr4zRflr08_f6PJ-hQDn-25" value="《include》" style="edgeLabel;html=1;align=center;verticalAlign=middle;resizable=0;points=[];" vertex="1" connectable="0" parent="Qr4zRflr08_f6PJ-hQDn-24">
          <mxGeometry x="-0.0826" relative="1" as="geometry">
            <mxPoint as="offset" />
          </mxGeometry>
        </mxCell>
        <mxCell id="Qr4zRflr08_f6PJ-hQDn-32" style="edgeStyle=orthogonalEdgeStyle;rounded=0;orthogonalLoop=1;jettySize=auto;html=1;exitX=0.5;exitY=1;exitDx=0;exitDy=0;" edge="1" parent="1">
          <mxGeometry relative="1" as="geometry">
            <mxPoint x="363" y="680" as="sourcePoint" />
            <mxPoint x="363" y="680" as="targetPoint" />
          </mxGeometry>
        </mxCell>
        <mxCell id="Qr4zRflr08_f6PJ-hQDn-33" value="查看品种图片" style="ellipse;whiteSpace=wrap;html=1;" vertex="1" parent="1">
          <mxGeometry x="406" y="160" width="90" height="40" as="geometry" />
        </mxCell>
        <mxCell id="Qr4zRflr08_f6PJ-hQDn-34" value="" style="endArrow=block;dashed=1;endFill=0;endSize=12;html=1;rounded=0;entryX=0;entryY=0.5;entryDx=0;entryDy=0;exitX=1;exitY=0.5;exitDx=0;exitDy=0;" edge="1" parent="1" target="Qr4zRflr08_f6PJ-hQDn-33" source="Qr4zRflr08_f6PJ-hQDn-5">
          <mxGeometry width="160" relative="1" as="geometry">
            <mxPoint x="306" y="180" as="sourcePoint" />
            <mxPoint x="464" y="183.95" as="targetPoint" />
          </mxGeometry>
        </mxCell>
        <mxCell id="Qr4zRflr08_f6PJ-hQDn-35" value="《include》" style="edgeLabel;html=1;align=center;verticalAlign=middle;resizable=0;points=[];" vertex="1" connectable="0" parent="Qr4zRflr08_f6PJ-hQDn-34">
          <mxGeometry x="-0.0826" relative="1" as="geometry">
            <mxPoint as="offset" />
          </mxGeometry>
        </mxCell>
        <mxCell id="Qr4zRflr08_f6PJ-hQDn-36" value="按类别搜索品种" style="ellipse;whiteSpace=wrap;html=1;" vertex="1" parent="1">
          <mxGeometry x="411" y="220" width="90" height="40" as="geometry" />
        </mxCell>
        <mxCell id="Qr4zRflr08_f6PJ-hQDn-37" value="" style="endArrow=block;dashed=1;endFill=0;endSize=12;html=1;rounded=0;entryX=0;entryY=0.5;entryDx=0;entryDy=0;exitX=1;exitY=0.5;exitDx=0;exitDy=0;" edge="1" parent="1" target="Qr4zRflr08_f6PJ-hQDn-36" source="Qr4zRflr08_f6PJ-hQDn-6">
          <mxGeometry width="160" relative="1" as="geometry">
            <mxPoint x="290" y="240" as="sourcePoint" />
            <mxPoint x="464" y="253.95" as="targetPoint" />
          </mxGeometry>
        </mxCell>
        <mxCell id="Qr4zRflr08_f6PJ-hQDn-38" value="《include》" style="edgeLabel;html=1;align=center;verticalAlign=middle;resizable=0;points=[];" vertex="1" connectable="0" parent="Qr4zRflr08_f6PJ-hQDn-37">
          <mxGeometry x="-0.0826" relative="1" as="geometry">
            <mxPoint as="offset" />
          </mxGeometry>
        </mxCell>
        <mxCell id="Qr4zRflr08_f6PJ-hQDn-39" value="查看品种信息" style="ellipse;whiteSpace=wrap;html=1;" vertex="1" parent="1">
          <mxGeometry x="411" y="300" width="90" height="40" as="geometry" />
        </mxCell>
        <mxCell id="Qr4zRflr08_f6PJ-hQDn-40" value="" style="endArrow=block;dashed=1;endFill=0;endSize=12;html=1;rounded=0;entryX=0;entryY=0.5;entryDx=0;entryDy=0;exitX=1;exitY=0.5;exitDx=0;exitDy=0;" edge="1" parent="1" target="Qr4zRflr08_f6PJ-hQDn-39" source="Qr4zRflr08_f6PJ-hQDn-7">
          <mxGeometry width="160" relative="1" as="geometry">
            <mxPoint x="288" y="300" as="sourcePoint" />
            <mxPoint x="411" y="320" as="targetPoint" />
          </mxGeometry>
        </mxCell>
        <mxCell id="Qr4zRflr08_f6PJ-hQDn-41" value="《include》" style="edgeLabel;html=1;align=center;verticalAlign=middle;resizable=0;points=[];" vertex="1" connectable="0" parent="Qr4zRflr08_f6PJ-hQDn-40">
          <mxGeometry x="-0.0826" relative="1" as="geometry">
            <mxPoint as="offset" />
          </mxGeometry>
        </mxCell>
        <mxCell id="Qr4zRflr08_f6PJ-hQDn-42" style="edgeStyle=orthogonalEdgeStyle;rounded=0;orthogonalLoop=1;jettySize=auto;html=1;exitX=0.5;exitY=1;exitDx=0;exitDy=0;" edge="1" parent="1" source="Qr4zRflr08_f6PJ-hQDn-4" target="Qr4zRflr08_f6PJ-hQDn-4">
          <mxGeometry relative="1" as="geometry" />
        </mxCell>
        <mxCell id="Qr4zRflr08_f6PJ-hQDn-43" value="查看起源地地图" style="ellipse;whiteSpace=wrap;html=1;" vertex="1" parent="1">
          <mxGeometry x="414" y="350" width="90" height="40" as="geometry" />
        </mxCell>
        <mxCell id="Qr4zRflr08_f6PJ-hQDn-44" value="" style="endArrow=block;dashed=1;endFill=0;endSize=12;html=1;rounded=0;entryX=0;entryY=0.5;entryDx=0;entryDy=0;exitX=1;exitY=0.5;exitDx=0;exitDy=0;" edge="1" parent="1" target="Qr4zRflr08_f6PJ-hQDn-43" source="Qr4zRflr08_f6PJ-hQDn-7">
          <mxGeometry width="160" relative="1" as="geometry">
            <mxPoint x="292.25" y="360" as="sourcePoint" />
            <mxPoint x="464.25" y="353.95" as="targetPoint" />
          </mxGeometry>
        </mxCell>
        <mxCell id="Qr4zRflr08_f6PJ-hQDn-45" value="《include》" style="edgeLabel;html=1;align=center;verticalAlign=middle;resizable=0;points=[];" vertex="1" connectable="0" parent="Qr4zRflr08_f6PJ-hQDn-44">
          <mxGeometry x="-0.0826" relative="1" as="geometry">
            <mxPoint as="offset" />
          </mxGeometry>
        </mxCell>
        <mxCell id="Qr4zRflr08_f6PJ-hQDn-46" value="查看宠物简介" style="ellipse;whiteSpace=wrap;html=1;" vertex="1" parent="1">
          <mxGeometry x="414" y="400" width="90" height="40" as="geometry" />
        </mxCell>
        <mxCell id="Qr4zRflr08_f6PJ-hQDn-47" value="" style="endArrow=block;dashed=1;endFill=0;endSize=12;html=1;rounded=0;entryX=0;entryY=0.5;entryDx=0;entryDy=0;exitX=1;exitY=0.5;exitDx=0;exitDy=0;" edge="1" parent="1" target="Qr4zRflr08_f6PJ-hQDn-46" source="Qr4zRflr08_f6PJ-hQDn-7">
          <mxGeometry width="160" relative="1" as="geometry">
            <mxPoint x="292.25" y="360" as="sourcePoint" />
            <mxPoint x="474.25" y="363.95" as="targetPoint" />
          </mxGeometry>
        </mxCell>
        <mxCell id="Qr4zRflr08_f6PJ-hQDn-48" value="《include》" style="edgeLabel;html=1;align=center;verticalAlign=middle;resizable=0;points=[];" vertex="1" connectable="0" parent="Qr4zRflr08_f6PJ-hQDn-47">
          <mxGeometry x="-0.0826" relative="1" as="geometry">
            <mxPoint as="offset" />
          </mxGeometry>
        </mxCell>
        <mxCell id="Qr4zRflr08_f6PJ-hQDn-49" value="查看护理指导" style="ellipse;whiteSpace=wrap;html=1;" vertex="1" parent="1">
          <mxGeometry x="411" y="470" width="90" height="40" as="geometry" />
        </mxCell>
        <mxCell id="Qr4zRflr08_f6PJ-hQDn-50" value="" style="endArrow=block;dashed=1;endFill=0;endSize=12;html=1;rounded=0;entryX=0;entryY=0.5;entryDx=0;entryDy=0;exitX=1;exitY=0.5;exitDx=0;exitDy=0;" edge="1" parent="1" target="Qr4zRflr08_f6PJ-hQDn-49" source="Qr4zRflr08_f6PJ-hQDn-8">
          <mxGeometry width="160" relative="1" as="geometry">
            <mxPoint x="299" y="530" as="sourcePoint" />
            <mxPoint x="411" y="480" as="targetPoint" />
          </mxGeometry>
        </mxCell>
        <mxCell id="Qr4zRflr08_f6PJ-hQDn-51" value="《include》" style="edgeLabel;html=1;align=center;verticalAlign=middle;resizable=0;points=[];" vertex="1" connectable="0" parent="Qr4zRflr08_f6PJ-hQDn-50">
          <mxGeometry x="-0.0826" relative="1" as="geometry">
            <mxPoint as="offset" />
          </mxGeometry>
        </mxCell>
        <mxCell id="Qr4zRflr08_f6PJ-hQDn-52" value="查看健康建议" style="ellipse;whiteSpace=wrap;html=1;" vertex="1" parent="1">
          <mxGeometry x="414" y="530" width="90" height="40" as="geometry" />
        </mxCell>
        <mxCell id="Qr4zRflr08_f6PJ-hQDn-53" value="" style="endArrow=block;dashed=1;endFill=0;endSize=12;html=1;rounded=0;entryX=0;entryY=0.5;entryDx=0;entryDy=0;exitX=1;exitY=0.5;exitDx=0;exitDy=0;" edge="1" parent="1" target="Qr4zRflr08_f6PJ-hQDn-52" source="Qr4zRflr08_f6PJ-hQDn-8">
          <mxGeometry width="160" relative="1" as="geometry">
            <mxPoint x="299" y="530" as="sourcePoint" />
            <mxPoint x="464.25" y="513.95" as="targetPoint" />
          </mxGeometry>
        </mxCell>
        <mxCell id="Qr4zRflr08_f6PJ-hQDn-54" value="《include》" style="edgeLabel;html=1;align=center;verticalAlign=middle;resizable=0;points=[];" vertex="1" connectable="0" parent="Qr4zRflr08_f6PJ-hQDn-53">
          <mxGeometry x="-0.0826" relative="1" as="geometry">
            <mxPoint as="offset" />
          </mxGeometry>
        </mxCell>
        <mxCell id="Qr4zRflr08_f6PJ-hQDn-62" value="" style="endArrow=none;html=1;rounded=0;entryX=1;entryY=0.5;entryDx=0;entryDy=0;exitX=0;exitY=0.3333333333333333;exitDx=0;exitDy=0;exitPerimeter=0;" edge="1" parent="1" source="Qr4zRflr08_f6PJ-hQDn-3" target="Qr4zRflr08_f6PJ-hQDn-5">
          <mxGeometry width="50" height="50" relative="1" as="geometry">
            <mxPoint x="90" y="350" as="sourcePoint" />
            <mxPoint x="214" y="280" as="targetPoint" />
          </mxGeometry>
        </mxCell>
        <mxCell id="Qr4zRflr08_f6PJ-hQDn-63" value="" style="endArrow=none;html=1;rounded=0;entryX=1;entryY=0.5;entryDx=0;entryDy=0;" edge="1" parent="1" target="Qr4zRflr08_f6PJ-hQDn-6">
          <mxGeometry width="50" height="50" relative="1" as="geometry">
            <mxPoint x="620" y="340" as="sourcePoint" />
            <mxPoint x="304" y="170" as="targetPoint" />
          </mxGeometry>
        </mxCell>
        <mxCell id="Qr4zRflr08_f6PJ-hQDn-64" value="" style="endArrow=none;html=1;rounded=0;entryX=1;entryY=0.5;entryDx=0;entryDy=0;" edge="1" parent="1" target="Qr4zRflr08_f6PJ-hQDn-7">
          <mxGeometry width="50" height="50" relative="1" as="geometry">
            <mxPoint x="620" y="340" as="sourcePoint" />
            <mxPoint x="301" y="280" as="targetPoint" />
          </mxGeometry>
        </mxCell>
        <mxCell id="Qr4zRflr08_f6PJ-hQDn-65" value="" style="endArrow=none;html=1;rounded=0;entryX=1;entryY=0.5;entryDx=0;entryDy=0;" edge="1" parent="1" target="Qr4zRflr08_f6PJ-hQDn-8">
          <mxGeometry width="50" height="50" relative="1" as="geometry">
            <mxPoint x="620" y="340" as="sourcePoint" />
            <mxPoint x="309" y="380" as="targetPoint" />
          </mxGeometry>
        </mxCell>
      </root>
    </mxGraphModel>
  </diagram>
</mxfile>
